<svg width="100" height="100" viewBox="0 0 100 100" fill="none" xmlns="http://www.w3.org/2000/svg">
<path d="M34.375 70.3125C52.4968 70.3125 67.1875 55.6218 67.1875 37.5C67.1875 19.3782 52.4968 4.6875 34.375 4.6875C16.2532 4.6875 1.5625 19.3782 1.5625 37.5C1.5625 55.6218 16.2532 70.3125 34.375 70.3125Z" fill="#FFF68B" stroke="#54596E" stroke-width="2" stroke-linecap="round" stroke-linejoin="round"/>
<path d="M26.3438 39.1719C27.4101 40.1898 28.6712 40.9817 30.0514 41.4999C31.4315 42.0182 32.9022 42.252 34.375 42.1875C35.8342 42.2498 37.2911 42.0192 38.6597 41.5093C40.0283 40.9994 41.281 40.2206 42.3437 39.2188" stroke="#54596E" stroke-width="2" stroke-linecap="round" stroke-linejoin="round"/>
<path d="M22.4375 23.4375C22.4375 24.6111 21.4861 25.5625 20.3125 25.5625C19.1389 25.5625 18.1875 24.6111 18.1875 23.4375C18.1875 22.2639 19.1389 21.3125 20.3125 21.3125C21.4861 21.3125 22.4375 22.2639 22.4375 23.4375Z" fill="#54596E" stroke="#54596E" stroke-width="2"/>
<path d="M50.5625 23.4375C50.5625 24.6111 49.6111 25.5625 48.4375 25.5625C47.2639 25.5625 46.3125 24.6111 46.3125 23.4375C46.3125 22.2639 47.2639 21.3125 48.4375 21.3125C49.6111 21.3125 50.5625 22.2639 50.5625 23.4375Z" fill="#54596E" stroke="#54596E" stroke-width="2"/>
<path d="M50.5625 32.8125C50.5625 33.9861 49.6111 34.9375 48.4375 34.9375C47.2639 34.9375 46.3125 33.9861 46.3125 32.8125C46.3125 31.6389 47.2639 30.6875 48.4375 30.6875C49.6111 30.6875 50.5625 31.6389 50.5625 32.8125Z" fill="#FF927D" stroke="#54596E" stroke-width="2"/>
<path d="M22.4375 32.8125C22.4375 33.9861 21.4861 34.9375 20.3125 34.9375C19.1389 34.9375 18.1875 33.9861 18.1875 32.8125C18.1875 31.6389 19.1389 30.6875 20.3125 30.6875C21.4861 30.6875 22.4375 31.6389 22.4375 32.8125Z" fill="#FF927D" stroke="#54596E" stroke-width="2"/>
<path d="M92.1875 68.75C91.2977 68.755 90.4192 68.95 89.6109 69.3218C88.8025 69.6937 88.0828 70.2339 87.5 70.9062V51.5625H68.1562C69.119 50.728 69.8037 49.6192 70.1186 48.3846C70.4335 47.1501 70.3636 45.8488 69.9182 44.6551C69.4729 43.4614 68.6734 42.4324 67.6268 41.7058C66.5802 40.9792 65.3366 40.5898 64.0625 40.5898C62.7884 40.5898 61.5448 40.9792 60.4982 41.7058C59.4516 42.4324 58.6521 43.4614 58.2068 44.6551C57.7614 45.8488 57.6915 47.1501 58.0064 48.3846C58.3213 49.6192 59.006 50.728 59.9688 51.5625H42.1875V70.9062C43.022 69.9435 44.1308 69.2588 45.3654 68.9439C46.5999 68.629 47.9012 68.6989 49.0949 69.1443C50.2886 69.5896 51.3176 70.3891 52.0442 71.4357C52.7708 72.4823 53.1602 73.7259 53.1602 75C53.1602 76.2741 52.7708 77.5177 52.0442 78.5643C51.3176 79.6109 50.2886 80.4104 49.0949 80.8557C47.9012 81.3011 46.5999 81.371 45.3654 81.0561C44.1308 80.7411 43.022 80.0565 42.1875 79.0937V96.875H59.9688C59.006 96.0405 58.3213 94.9317 58.0064 93.6971C57.6915 92.4626 57.7614 91.1613 58.2068 89.9676C58.6521 88.7739 59.4516 87.7449 60.4982 87.0183C61.5448 86.2917 62.7884 85.9023 64.0625 85.9023C65.3366 85.9023 66.5802 86.2917 67.6268 87.0183C68.6734 87.7449 69.4729 88.7739 69.9182 89.9676C70.3636 91.1613 70.4335 92.4626 70.1186 93.6971C69.8037 94.9317 69.119 96.0405 68.1562 96.875H87.5V79.0937C88.1865 79.8857 89.0612 80.4923 90.0436 80.8578C91.026 81.2232 92.0845 81.3357 93.1217 81.1849C94.1589 81.0341 95.1416 80.6249 95.9792 79.9949C96.8169 79.3649 97.4827 78.5344 97.9153 77.5797C98.348 76.625 98.5336 75.5769 98.455 74.5317C98.3765 73.4865 98.0364 72.4778 97.466 71.5985C96.8956 70.7192 96.1132 69.9974 95.1908 69.4997C94.2684 69.0019 93.2356 68.7441 92.1875 68.75Z" fill="#6E85FF" stroke="#54596E" stroke-width="2" stroke-linecap="round" stroke-linejoin="round"/>
</svg>
